# xmcd
#
# Track frame offsets: 
#        150
#        12627
#        26906
#        39570
#
# Disc length: 724 seconds
#
# Revision: 0
# Processed by: cddbd v1.5.1PL0 Copyright (c) Steve Scherf et al.
# Submitted via: ExactAudioCopy v0.95a5
#
DISCID=2f02d204
DTITLE=The Chasers - Unmixed Demo
DYEAR=1900
DGENRE=Acid Punk
TTITLE0=cool ya jets
TTITLE1=panache
TTITLE2=Strick-nine
TTITLE3=I aint listenin'
EXTD=
EXTT0=
EXTT1=
EXTT2=
EXTT3=
PLAYORDER=
